{"title":"Dark-Country-3D-Half-SBS-Raster-[THD]","uid":6305340,"size":8959093974,"categoryP":"video","categoryS":"movies","magnet":"?xt=urn:btih:f26447d03e31aa7ffaa9a6ae29a2afe87426e044&amp;dn=Dark-Country-3D-Half-SBS-Raster-%5BTHD%5D&amp;tr=udp%3A%2F%2Ftracker.openbittorrent.com%3A80&amp;tr=udp%3A%2F%2Fopen.demonii.com%3A1337&amp;tr=udp%3A%2F%2Ftracker.coppersurfer.tk%3A6969&amp;tr=udp%3A%2F%2Fexodus.desync.com%3A6969","seeders":0,"leechers":1,"uploader":"raster","files":2,"time":1302305860,"description":"Dark-Country-3D-Half-SBS-Raster-[THD]\n\nTHD is makeing a come back.\n\nkeep a eye out for more from THD ;)\n\nFormat : Matroska\nFile size : 8.34 GiB\nDuration : 1h 28mn\nOverall bit rate : 13.6 Mbps\nWriting application : mkvmerge v4.6.0 (\\\\\\'Still Crazy After All These Years\\\\\\') built on Mar 10 2011 02:50:32\nWriting library : libebml v1.2.0 + libmatroska v1.1.0\n\nVideo\nID : 1\nFormat : AVC\nFormat/Info : Advanced Video Codec\nFormat profile : &lt;a class=&quot;__cf_email__&quot; href=&quot;/cdn-cgi/l/email-protection&quot; data-cfemail=&quot;bbf3d2dcd3fbf78f958a&quot;&gt;[email&amp;#160;protected]&lt;/a&gt;&lt;script cf-hash='f9e31' type=&quot;text/javascript&quot;&gt;\n/* &lt;![CDATA[ */!function(){try{var t=&quot;currentScript&quot;in document?document.currentScript:function(){for(var t=document.getElementsByTagName(&quot;script&quot;),e=t.length;e--;)if(t[e].getAttribute(&quot;cf-hash&quot;))return t[e]}();if(t&amp;&amp;t.previousSibling){var e,r,n,i,c=t.previousSibling,a=c.getAttribute(&quot;data-cfemail&quot;);if(a){for(e=&quot;&quot;,r=parseInt(a.substr(0,2),16),n=2;a.length-n;n+=2)i=parseInt(a.substr(n,2),16)^r,e+=String.fromCharCode(i);e=document.createTextNode(e),c.parentNode.replaceChild(e,c)}}}catch(u){}}();/* ]]&gt; */&lt;/script&gt;\nDuration : 1h 28mn\nBit rate mode : Variable\nBit rate : 11.8 Mbps\nMaximum bit rate : 18.1 Mbps\nWidth : 1 920 pixels\nHeight : 1 080 pixels\nDisplay aspect ratio : 16:9\nFrame rate : 23.976 fps\nBit depth : 8 bits\nScan type : Progressive\nBits/(Pixel*Frame) : 0.237\nStream size : 7.25 GiB (87%)\nLanguage : English\n\nAudio\nID : 2\nFormat : DTS\nFormat/Info : Digital Theater Systems\nCodec ID : A_DTS\nDuration : 1h 28mn\nBit rate mode : Constant\nBit rate : 1 510 Kbps\nChannel(s) : 6 channels\nChannel positions : Front: L C R, Side: L R, LFE\nSampling rate : 48.0 KHz\nBit depth : 16 bits\nCompression mode : Lossy\nStream size : 952 MiB (11%)\nLanguage : English\n\nCover = http://img508.imageshack.us/img508/1570/darkcountry.jpg\n\nIMDB = http://www.imdb.com/title/tt0469318/\n\nBest Regards to all,\n\nRaster.","torrent":{"xt":"urn:btih:f26447d03e31aa7ffaa9a6ae29a2afe87426e044","amp;dn":"Dark-Country-3D-Half-SBS-Raster-%5BTHD%5D","amp;tr":["udp%3A%2F%2Ftracker.openbittorrent.com%3A80","udp%3A%2F%2Fopen.demonii.com%3A1337","udp%3A%2F%2Ftracker.coppersurfer.tk%3A6969","udp%3A%2F%2Fexodus.desync.com%3A6969"],"infoHash":"f26447d03e31aa7ffaa9a6ae29a2afe87426e044","infoHashBuffer":{"type":"Buffer","data":[242,100,71,208,62,49,170,127,250,169,166,174,41,162,175,232,116,38,224,68]},"announce":[],"urlList":[]}}